<?xml version="1.0" encoding="UTF-8" standalone="no"?>
<!DOCTYPE svg PUBLIC "-//W3C//DTD SVG 1.1//EN"
 "http://www.w3.org/Graphics/SVG/1.1/DTD/svg11.dtd">
<!-- Generated by graphviz version 2.43.0 (0)
 -->
<!-- Title: G Pages: 1 -->
<svg width="1431pt" height="349pt"
 viewBox="0.00 0.00 1431.08 349.38" xmlns="http://www.w3.org/2000/svg" xmlns:xlink="http://www.w3.org/1999/xlink">
<g id="graph0" class="graph" transform="scale(1 1) rotate(0) translate(4 345.38)">
<title>G</title><style>.edge>path:hover{stroke-width:8}</style>
<polygon fill="white" stroke="transparent" points="-4,4 -4,-345.38 1427.08,-345.38 1427.08,4 -4,4"/>
<!-- bashautodoc -->
<g id="node1" class="node">
<title>bashautodoc</title><style>.edge>path:hover{stroke-width:8}</style>
<ellipse fill="#a90404" stroke="black" cx="206.63" cy="-231.99" rx="46.51" ry="18"/>
<text text-anchor="middle" x="206.63" y="-229.49" font-family="Helvetica,sans-Serif" font-size="10.00" fill="#ffffff">bashautodoc</text>
</g>
<!-- bashautodoc_DocSectionWriterFunction -->
<g id="node2" class="node">
<title>bashautodoc_DocSectionWriterFunction</title><style>.edge>path:hover{stroke-width:8}</style>
<ellipse fill="#b83d3d" stroke="black" cx="858.23" cy="-286.99" rx="101.23" ry="21.43"/>
<text text-anchor="middle" x="858.23" y="-289.99" font-family="Helvetica,sans-Serif" font-size="10.00" fill="#ffffff">bashautodoc.</text>
<text text-anchor="middle" x="858.23" y="-278.99" font-family="Helvetica,sans-Serif" font-size="10.00" fill="#ffffff">DocSectionWriterFunction</text>
</g>
<!-- bashautodoc&#45;&gt;bashautodoc_DocSectionWriterFunction -->
<g id="edge2" class="edge">
<title>bashautodoc&#45;&gt;bashautodoc_DocSectionWriterFunction</title><style>.edge>path:hover{stroke-width:8}</style>
<path fill="none" stroke="black" d="M388.42,-261.99C432.07,-267.94 446.82,-260.29 485.71,-280.99 505.68,-291.62 501.72,-306.39 521.71,-316.99 561.17,-337.93 575.97,-331.46 620.41,-335.99"/>
<path fill="none" stroke="black" d="M622.41,-335.99C683.91,-342.26 753.04,-324.79 800.27,-308.99"/>
<polygon fill="#a90404" stroke="black" points="801.68,-312.21 810.01,-305.66 799.41,-305.59 801.68,-312.21"/>
</g>
<!-- bashautodoc_config -->
<g id="node3" class="node">
<title>bashautodoc_config</title><style>.edge>path:hover{stroke-width:8}</style>
<ellipse fill="#c04040" stroke="black" cx="387.42" cy="-310.99" rx="57.97" ry="21.43"/>
<text text-anchor="middle" x="387.42" y="-313.99" font-family="Helvetica,sans-Serif" font-size="10.00" fill="#ffffff">bashautodoc.</text>
<text text-anchor="middle" x="387.42" y="-302.99" font-family="Helvetica,sans-Serif" font-size="10.00" fill="#ffffff">config</text>
</g>
<!-- bashautodoc&#45;&gt;bashautodoc_config -->
<g id="edge4" class="edge">
<title>bashautodoc&#45;&gt;bashautodoc_config</title><style>.edge>path:hover{stroke-width:8}</style>
<path fill="none" stroke="black" d="M232.83,-246.87C248.69,-255.91 269.75,-267.33 289.13,-275.99 303.25,-282.3 318.87,-288.32 333.4,-293.54"/>
<polygon fill="#a90404" stroke="black" points="332.66,-296.99 343.25,-297.02 334.99,-290.39 332.66,-296.99"/>
</g>
<!-- bashautodoc_create_handwritten_docs -->
<g id="node4" class="node">
<title>bashautodoc_create_handwritten_docs</title><style>.edge>path:hover{stroke-width:8}</style>
<ellipse fill="#a83838" stroke="black" cx="387.42" cy="-87.99" rx="98.08" ry="21.43"/>
<text text-anchor="middle" x="387.42" y="-90.99" font-family="Helvetica,sans-Serif" font-size="10.00" fill="#ffffff">bashautodoc.</text>
<text text-anchor="middle" x="387.42" y="-79.99" font-family="Helvetica,sans-Serif" font-size="10.00" fill="#ffffff">create_handwritten_docs</text>
</g>
<!-- bashautodoc&#45;&gt;bashautodoc_create_handwritten_docs -->
<g id="edge6" class="edge">
<title>bashautodoc&#45;&gt;bashautodoc_create_handwritten_docs</title><style>.edge>path:hover{stroke-width:8}</style>
<path fill="none" stroke="black" d="M233.64,-217.15C240.59,-212.32 247.67,-206.5 253.13,-199.99 277.4,-171.04 261.22,-148.45 289.13,-122.99 295.68,-117.02 303.33,-112.04 311.41,-107.91"/>
<polygon fill="#a90404" stroke="black" points="313.09,-110.99 320.67,-103.59 310.13,-104.64 313.09,-110.99"/>
</g>
<!-- bashautodoc_function_call_tree -->
<g id="node5" class="node">
<title>bashautodoc_function_call_tree</title><style>.edge>path:hover{stroke-width:8}</style>
<ellipse fill="#c24747" stroke="black" cx="1068.88" cy="-310.99" rx="73.58" ry="21.43"/>
<text text-anchor="middle" x="1068.88" y="-313.99" font-family="Helvetica,sans-Serif" font-size="10.00" fill="#ffffff">bashautodoc.</text>
<text text-anchor="middle" x="1068.88" y="-302.99" font-family="Helvetica,sans-Serif" font-size="10.00" fill="#ffffff">function_call_tree</text>
</g>
<!-- bashautodoc&#45;&gt;bashautodoc_function_call_tree -->
<g id="edge8" class="edge">
<title>bashautodoc&#45;&gt;bashautodoc_function_call_tree</title><style>.edge>path:hover{stroke-width:8}</style>
<path fill="none" stroke="black" d="M622.41,-335.99C752.63,-349.27 905.04,-334.12 993.61,-322.29"/>
<polygon fill="#a90404" stroke="black" points="994.12,-325.76 1003.56,-320.94 993.18,-318.82 994.12,-325.76"/>
</g>
<!-- bashautodoc_function_dependency_processor -->
<g id="node6" class="node">
<title>bashautodoc_function_dependency_processor</title><style>.edge>path:hover{stroke-width:8}</style>
<ellipse fill="#c24747" stroke="black" cx="1300.75" cy="-237.99" rx="122.16" ry="21.43"/>
<text text-anchor="middle" x="1300.75" y="-240.99" font-family="Helvetica,sans-Serif" font-size="10.00" fill="#ffffff">bashautodoc.</text>
<text text-anchor="middle" x="1300.75" y="-229.99" font-family="Helvetica,sans-Serif" font-size="10.00" fill="#ffffff">function_dependency_processor</text>
</g>
<!-- bashautodoc&#45;&gt;bashautodoc_function_dependency_processor -->
<g id="edge10" class="edge">
<title>bashautodoc&#45;&gt;bashautodoc_function_dependency_processor</title><style>.edge>path:hover{stroke-width:8}</style>
<path fill="none" stroke="black" d="M249.06,-239.69C285.23,-246.23 339.17,-255.55 386.42,-261.99"/>
<path fill="none" stroke="black" d="M388.42,-261.99C447.16,-270 462.46,-259.13 521.71,-256.99 764.44,-248.22 825.54,-221.67 1067.88,-237.99"/>
</g>
<!-- bashautodoc_md_toc2_yaml_processor -->
<g id="node7" class="node">
<title>bashautodoc_md_toc2_yaml_processor</title><style>.edge>path:hover{stroke-width:8}</style>
<ellipse fill="#c04040" stroke="black" cx="621.41" cy="-74.99" rx="99.9" ry="21.43"/>
<text text-anchor="middle" x="621.41" y="-77.99" font-family="Helvetica,sans-Serif" font-size="10.00" fill="#ffffff">bashautodoc.</text>
<text text-anchor="middle" x="621.41" y="-66.99" font-family="Helvetica,sans-Serif" font-size="10.00" fill="#ffffff">md_toc2_yaml_processor</text>
</g>
<!-- bashautodoc&#45;&gt;bashautodoc_md_toc2_yaml_processor -->
<g id="edge12" class="edge">
<title>bashautodoc&#45;&gt;bashautodoc_md_toc2_yaml_processor</title><style>.edge>path:hover{stroke-width:8}</style>
<path fill="none" stroke="black" d="M232.18,-216.54C239.25,-211.62 246.76,-205.91 253.13,-199.99 271.64,-182.79 267.43,-168.94 289.13,-155.99 365.54,-110.39 399.92,-141.62 485.71,-117.99 502.11,-113.47 505.56,-110.36 521.71,-104.99 531.62,-101.7 542.15,-98.34 552.49,-95.13"/>
<polygon fill="#a90404" stroke="black" points="553.79,-98.39 562.32,-92.1 551.73,-91.7 553.79,-98.39"/>
</g>
<!-- bashautodoc_shell_2md_file_writer -->
<g id="node12" class="node">
<title>bashautodoc_shell_2md_file_writer</title><style>.edge>path:hover{stroke-width:8}</style>
<ellipse fill="#b83d3d" stroke="black" cx="621.41" cy="-286.99" rx="86.03" ry="21.43"/>
<text text-anchor="middle" x="621.41" y="-289.99" font-family="Helvetica,sans-Serif" font-size="10.00" fill="#ffffff">bashautodoc.</text>
<text text-anchor="middle" x="621.41" y="-278.99" font-family="Helvetica,sans-Serif" font-size="10.00" fill="#ffffff">shell_2md_file_writer</text>
</g>
<!-- bashautodoc&#45;&gt;bashautodoc_shell_2md_file_writer -->
<g id="edge22" class="edge">
<title>bashautodoc&#45;&gt;bashautodoc_shell_2md_file_writer</title><style>.edge>path:hover{stroke-width:8}</style>
<path fill="none" stroke="black" d="M388.42,-261.99C435.15,-268.36 487.35,-274.11 530.39,-278.48"/>
<polygon fill="#a90404" stroke="black" points="530.25,-281.98 540.55,-279.5 530.95,-275.02 530.25,-281.98"/>
</g>
<!-- bashautodoc_shell_src_preprocessor -->
<g id="node13" class="node">
<title>bashautodoc_shell_src_preprocessor</title><style>.edge>path:hover{stroke-width:8}</style>
<ellipse fill="#a13535" stroke="black" cx="387.42" cy="-185.99" rx="90.52" ry="21.43"/>
<text text-anchor="middle" x="387.42" y="-188.99" font-family="Helvetica,sans-Serif" font-size="10.00" fill="#ffffff">bashautodoc.</text>
<text text-anchor="middle" x="387.42" y="-177.99" font-family="Helvetica,sans-Serif" font-size="10.00" fill="#ffffff">shell_src_preprocessor</text>
</g>
<!-- bashautodoc&#45;&gt;bashautodoc_shell_src_preprocessor -->
<g id="edge24" class="edge">
<title>bashautodoc&#45;&gt;bashautodoc_shell_src_preprocessor</title><style>.edge>path:hover{stroke-width:8}</style>
<path fill="none" stroke="black" d="M245.98,-222.12C266.36,-216.88 292.07,-210.27 315.9,-204.14"/>
<polygon fill="#a90404" stroke="black" points="316.81,-207.51 325.62,-201.63 315.06,-200.74 316.81,-207.51"/>
</g>
<!-- bashautodoc_DocSectionWriterFunction&#45;&gt;bashautodoc_function_call_tree -->
<g id="edge9" class="edge">
<title>bashautodoc_DocSectionWriterFunction&#45;&gt;bashautodoc_function_call_tree</title><style>.edge>path:hover{stroke-width:8}</style>
<path fill="none" stroke="black" d="M947.41,-297.13C961.64,-298.77 976.29,-300.46 990.24,-302.06"/>
<polygon fill="#b83d3d" stroke="black" points="989.94,-305.55 1000.27,-303.21 990.74,-298.59 989.94,-305.55"/>
</g>
<!-- bashautodoc_create_handwritten_docs&#45;&gt;bashautodoc_md_toc2_yaml_processor -->
<g id="edge13" class="edge">
<title>bashautodoc_create_handwritten_docs&#45;&gt;bashautodoc_md_toc2_yaml_processor</title><style>.edge>path:hover{stroke-width:8}</style>
<path fill="none" stroke="black" d="M482.78,-82.7C493.23,-82.12 503.94,-81.52 514.52,-80.92"/>
<polygon fill="#a83838" stroke="black" points="514.84,-84.41 524.63,-80.36 514.45,-77.42 514.84,-84.41"/>
</g>
<!-- bashautodoc_models -->
<g id="node8" class="node">
<title>bashautodoc_models</title><style>.edge>path:hover{stroke-width:8}</style>
<ellipse fill="#b62020" stroke="black" cx="621.41" cy="-134.99" rx="57.97" ry="21.43"/>
<text text-anchor="middle" x="621.41" y="-137.99" font-family="Helvetica,sans-Serif" font-size="10.00" fill="#ffffff">bashautodoc.</text>
<text text-anchor="middle" x="621.41" y="-126.99" font-family="Helvetica,sans-Serif" font-size="10.00" fill="#ffffff">models</text>
</g>
<!-- bashautodoc_create_handwritten_docs&#45;&gt;bashautodoc_models -->
<g id="edge14" class="edge">
<title>bashautodoc_create_handwritten_docs&#45;&gt;bashautodoc_models</title><style>.edge>path:hover{stroke-width:8}</style>
<path fill="none" stroke="black" d="M459.6,-102.41C491.79,-108.93 529.42,-116.56 560.18,-122.79"/>
<polygon fill="#a83838" stroke="black" points="559.84,-126.29 570.34,-124.85 561.23,-119.43 559.84,-126.29"/>
</g>
<!-- bashautodoc_models_rst2md_datahandler -->
<g id="node11" class="node">
<title>bashautodoc_models_rst2md_datahandler</title><style>.edge>path:hover{stroke-width:8}</style>
<ellipse fill="#b83d3d" stroke="black" cx="858.23" cy="-28.99" rx="81.13" ry="28.98"/>
<text text-anchor="middle" x="858.23" y="-37.49" font-family="Helvetica,sans-Serif" font-size="10.00" fill="#ffffff">bashautodoc.</text>
<text text-anchor="middle" x="858.23" y="-26.49" font-family="Helvetica,sans-Serif" font-size="10.00" fill="#ffffff">models.</text>
<text text-anchor="middle" x="858.23" y="-15.49" font-family="Helvetica,sans-Serif" font-size="10.00" fill="#ffffff">rst2md_datahandler</text>
</g>
<!-- bashautodoc_create_handwritten_docs&#45;&gt;bashautodoc_models_rst2md_datahandler -->
<g id="edge20" class="edge">
<title>bashautodoc_create_handwritten_docs&#45;&gt;bashautodoc_models_rst2md_datahandler</title><style>.edge>path:hover{stroke-width:8}</style>
<path fill="none" stroke="black" d="M435.45,-69.45C460.62,-60.39 492.4,-50.32 521.71,-44.99 603.7,-30.08 698.72,-26.83 766.66,-26.87"/>
<polygon fill="#a83838" stroke="black" points="766.89,-30.37 776.9,-26.9 766.91,-23.37 766.89,-30.37"/>
</g>
<!-- bashautodoc_models_filepath_datahandler -->
<g id="node9" class="node">
<title>bashautodoc_models_filepath_datahandler</title><style>.edge>path:hover{stroke-width:8}</style>
<ellipse fill="#c04040" stroke="black" cx="858.23" cy="-104.99" rx="83.38" ry="28.98"/>
<text text-anchor="middle" x="858.23" y="-113.49" font-family="Helvetica,sans-Serif" font-size="10.00" fill="#ffffff">bashautodoc.</text>
<text text-anchor="middle" x="858.23" y="-102.49" font-family="Helvetica,sans-Serif" font-size="10.00" fill="#ffffff">models.</text>
<text text-anchor="middle" x="858.23" y="-91.49" font-family="Helvetica,sans-Serif" font-size="10.00" fill="#ffffff">filepath_datahandler</text>
</g>
<!-- bashautodoc_models&#45;&gt;bashautodoc_models_filepath_datahandler -->
<g id="edge16" class="edge">
<title>bashautodoc_models&#45;&gt;bashautodoc_models_filepath_datahandler</title><style>.edge>path:hover{stroke-width:8}</style>
<path fill="none" stroke="black" d="M676.28,-128.11C703.89,-124.58 738.22,-120.2 769.52,-116.2"/>
<polygon fill="#b62020" stroke="black" points="770.09,-119.65 779.57,-114.91 769.21,-112.71 770.09,-119.65"/>
</g>
<!-- bashautodoc_models_function_datahandler -->
<g id="node10" class="node">
<title>bashautodoc_models_function_datahandler</title><style>.edge>path:hover{stroke-width:8}</style>
<ellipse fill="#b83d3d" stroke="black" cx="858.23" cy="-180.99" rx="84.71" ry="28.98"/>
<text text-anchor="middle" x="858.23" y="-189.49" font-family="Helvetica,sans-Serif" font-size="10.00" fill="#ffffff">bashautodoc.</text>
<text text-anchor="middle" x="858.23" y="-178.49" font-family="Helvetica,sans-Serif" font-size="10.00" fill="#ffffff">models.</text>
<text text-anchor="middle" x="858.23" y="-167.49" font-family="Helvetica,sans-Serif" font-size="10.00" fill="#ffffff">function_datahandler</text>
</g>
<!-- bashautodoc_models&#45;&gt;bashautodoc_models_function_datahandler -->
<g id="edge18" class="edge">
<title>bashautodoc_models&#45;&gt;bashautodoc_models_function_datahandler</title><style>.edge>path:hover{stroke-width:8}</style>
<path fill="none" stroke="black" d="M672.78,-144.86C702.34,-150.65 740.43,-158.11 774.31,-164.75"/>
<polygon fill="#b62020" stroke="black" points="773.72,-168.2 784.2,-166.69 775.06,-161.33 773.72,-168.2"/>
</g>
<!-- bashautodoc_models&#45;&gt;bashautodoc_models_rst2md_datahandler -->
<g id="edge21" class="edge">
<title>bashautodoc_models&#45;&gt;bashautodoc_models_rst2md_datahandler</title><style>.edge>path:hover{stroke-width:8}</style>
<path fill="none" stroke="black" d="M672.74,-125.08C688.95,-120.51 706.49,-114.03 721.11,-104.99 740.9,-92.76 737.75,-79.89 757.11,-66.99 766,-61.07 775.93,-55.9 786,-51.43"/>
<polygon fill="#b62020" stroke="black" points="787.4,-54.64 795.26,-47.53 784.68,-48.19 787.4,-54.64"/>
</g>
<!-- bashautodoc_models_function_datahandler&#45;&gt;bashautodoc_function_dependency_processor -->
<g id="edge11" class="edge">
<title>bashautodoc_models_function_datahandler&#45;&gt;bashautodoc_function_dependency_processor</title><style>.edge>path:hover{stroke-width:8}</style>
<path fill="none" stroke="black" d="M914.86,-202.7C956.3,-217.26 1014.68,-234.41 1067.88,-237.99"/>
<path fill="none" stroke="black" d="M1069.88,-237.99C1102.09,-240.16 1136.89,-240.96 1169.43,-241.04"/>
<polygon fill="#b83d3d" stroke="black" points="1169.45,-244.54 1179.45,-241.04 1169.45,-237.54 1169.45,-244.54"/>
</g>
<!-- bashautodoc_shell_2md_file_writer&#45;&gt;bashautodoc_DocSectionWriterFunction -->
<g id="edge3" class="edge">
<title>bashautodoc_shell_2md_file_writer&#45;&gt;bashautodoc_DocSectionWriterFunction</title><style>.edge>path:hover{stroke-width:8}</style>
<path fill="none" stroke="black" d="M707.85,-286.99C720.6,-286.99 733.89,-286.99 747.06,-286.99"/>
<polygon fill="#b83d3d" stroke="black" points="747.1,-290.49 757.1,-286.99 747.1,-283.49 747.1,-290.49"/>
</g>
<!-- bashautodoc_shell_src_preprocessor&#45;&gt;bashautodoc_models -->
<g id="edge15" class="edge">
<title>bashautodoc_shell_src_preprocessor&#45;&gt;bashautodoc_models</title><style>.edge>path:hover{stroke-width:8}</style>
<path fill="none" stroke="black" d="M453.97,-171.58C487.72,-164.16 528.56,-155.18 561.33,-147.98"/>
<polygon fill="#a13535" stroke="black" points="562.22,-151.37 571.23,-145.8 560.71,-144.53 562.22,-151.37"/>
</g>
<!-- bashautodoc_shell_src_preprocessor&#45;&gt;bashautodoc_models_filepath_datahandler -->
<g id="edge17" class="edge">
<title>bashautodoc_shell_src_preprocessor&#45;&gt;bashautodoc_models_filepath_datahandler</title><style>.edge>path:hover{stroke-width:8}</style>
<path fill="none" stroke="black" d="M477.27,-188.6C520.53,-189.01 573.27,-188.24 620.41,-183.99"/>
<path fill="none" stroke="black" d="M622.41,-183.99C666.9,-179.98 679.45,-181.12 721.11,-164.99 738.6,-158.22 740.27,-151.24 757.11,-142.99 767.18,-138.06 778.07,-133.34 788.82,-129"/>
<polygon fill="#a13535" stroke="black" points="790.2,-132.23 798.22,-125.3 787.63,-125.71 790.2,-132.23"/>
</g>
<!-- bashautodoc_shell_src_preprocessor&#45;&gt;bashautodoc_models_function_datahandler -->
<g id="edge19" class="edge">
<title>bashautodoc_shell_src_preprocessor&#45;&gt;bashautodoc_models_function_datahandler</title><style>.edge>path:hover{stroke-width:8}</style>
<path fill="none" stroke="black" d="M622.41,-183.99C668.65,-179.82 720.21,-178.77 763.21,-178.88"/>
<polygon fill="#a13535" stroke="black" points="763.37,-182.38 773.38,-178.93 763.4,-175.38 763.37,-182.38"/>
</g>
<!-- bashautodoc_shell_src_preprocessor&#45;&gt;bashautodoc_shell_2md_file_writer -->
<g id="edge23" class="edge">
<title>bashautodoc_shell_src_preprocessor&#45;&gt;bashautodoc_shell_2md_file_writer</title><style>.edge>path:hover{stroke-width:8}</style>
<path fill="none" stroke="black" d="M431.24,-204.63C469.99,-221.5 527.14,-246.39 568.48,-264.38"/>
<polygon fill="#a13535" stroke="black" points="567.27,-267.67 577.84,-268.46 570.07,-261.26 567.27,-267.67"/>
</g>
<!-- launcher_py -->
<g id="node14" class="node">
<title>launcher_py</title><style>.edge>path:hover{stroke-width:8}</style>
<ellipse fill="#4e9292" stroke="black" cx="43.56" cy="-231.99" rx="43.62" ry="18"/>
<text text-anchor="middle" x="43.56" y="-229.49" font-family="Helvetica,sans-Serif" font-size="10.00" fill="#ffffff">launcher.py</text>
</g>
<!-- launcher_py&#45;&gt;bashautodoc -->
<g id="edge1" class="edge">
<title>launcher_py&#45;&gt;bashautodoc</title><style>.edge>path:hover{stroke-width:8}</style>
<path fill="none" stroke="black" d="M124.12,-231.99C132.46,-231.99 141.28,-231.99 149.92,-231.99"/>
<polygon fill="#4e9292" stroke="black" points="149.93,-235.49 159.93,-231.99 149.93,-228.49 149.93,-235.49"/>
</g>
<!-- launcher_py&#45;&gt;bashautodoc_config -->
<g id="edge5" class="edge">
<title>launcher_py&#45;&gt;bashautodoc_config</title><style>.edge>path:hover{stroke-width:8}</style>
<path fill="none" stroke="black" d="M124.12,-231.99C144.12,-231.99 141.98,-250.57 160.12,-258.99 211.73,-282.95 275.22,-296.3 321.8,-303.45"/>
<polygon fill="#4e9292" stroke="black" points="321.37,-306.93 331.77,-304.93 322.39,-300 321.37,-306.93"/>
</g>
<!-- launcher_py&#45;&gt;bashautodoc_create_handwritten_docs -->
<g id="edge7" class="edge">
<title>launcher_py&#45;&gt;bashautodoc_create_handwritten_docs</title><style>.edge>path:hover{stroke-width:8}</style>
<path fill="none" stroke="black" d="M87.37,-232.12C98.97,-232.12 111.53,-232.08 123.12,-231.99"/>
<path fill="none" stroke="black" d="M124.12,-231.99C144.12,-231.83 142.76,-214.92 160.12,-204.99 179.15,-194.11 185.32,-194.23 205.63,-185.99"/>
<path fill="none" stroke="black" d="M207.63,-185.99C252.42,-167.82 246.54,-136.84 289.13,-113.99 294.64,-111.04 300.51,-108.4 306.53,-106.05"/>
<polygon fill="#4e9292" stroke="black" points="307.88,-109.28 316.09,-102.59 305.49,-102.7 307.88,-109.28"/>
</g>
<!-- launcher_py&#45;&gt;bashautodoc_shell_src_preprocessor -->
<g id="edge25" class="edge">
<title>launcher_py&#45;&gt;bashautodoc_shell_src_preprocessor</title><style>.edge>path:hover{stroke-width:8}</style>
<path fill="none" stroke="black" d="M207.63,-185.99C237.22,-173.99 271.9,-171.63 302.8,-173.11"/>
<polygon fill="#4e9292" stroke="black" points="302.92,-176.62 313.12,-173.75 303.35,-169.64 302.92,-176.62"/>
</g>
</g>
</svg>
